<svg width="126" height="41" viewBox="0 0 126 41" fill="none" xmlns="http://www.w3.org/2000/svg">
<path d="M46.9211 9.89819L48.6936 7.35554C49.5571 8.17282 50.8296 8.80849 52.3294 8.80849C52.9656 8.80849 53.6019 8.62687 53.6019 8.21823C53.6019 7.12852 47.2847 8.21823 47.2847 3.76858C47.2847 1.86159 48.8754 0.0454102 51.9658 0.0454102C53.8291 0.0454102 55.4653 0.590265 56.7832 1.63457L54.9653 4.04101C53.9655 3.31454 52.693 2.9059 51.6477 2.9059C50.9659 2.9059 50.7842 3.13292 50.7842 3.40535C50.7842 4.44965 57.0559 3.54156 57.0559 7.76418C57.0559 10.2614 55.1926 11.669 52.193 11.669C49.7389 11.669 48.1027 10.9879 46.9211 9.89819Z" fill="#FEFEFE"/>
<path d="M61.0099 11.4876V6.99256L56.7832 0.181885H60.6463L62.7369 3.99586L64.782 0.181885H68.6451L64.4639 6.99256V11.4876H61.0099Z" fill="#FEFEFE"/>
<path d="M76.8256 11.4876L72.6444 5.76664V11.4876H69.2359V0.181885H72.7808L76.6893 5.53962V0.181885H80.0979V11.4876H76.8256Z" fill="#FEFEFE"/>
<path d="M81.9612 11.4876V0.181885H90.5508V3.17858H85.4152V4.3137H90.4599V7.26499H85.4152V8.49091H90.5508V11.4876H81.9612Z" fill="#FEFEFE"/>
<path d="M98.2769 11.4876L96.7317 7.94606H95.4591V11.4876H92.0506V0.181885H98.0951C100.731 0.181885 102.14 1.95266 102.14 4.04127C102.14 5.99366 101.004 7.03797 100.095 7.44661L102.14 11.4422H98.2769V11.4876ZM98.6859 4.04127C98.6859 3.45101 98.1406 3.17858 97.5497 3.17858H95.4591V4.94936H97.5497C98.1406 4.94936 98.6859 4.67693 98.6859 4.04127Z" fill="#FEFEFE"/>
<path d="M102.913 5.85718C102.913 2.22482 105.73 0 109.139 0C111.82 0 113.411 1.49835 114.093 2.95129L111.229 4.40424C110.911 3.72317 110.184 2.9967 109.139 2.9967C107.503 2.9967 106.412 4.26802 106.412 5.81178C106.412 7.40094 107.503 8.62686 109.139 8.62686C109.775 8.62686 110.548 8.39983 110.911 8.12741V7.71877H108.821V4.72207H114.32V9.35333C113.047 10.7609 111.366 11.6236 109.139 11.6236C105.73 11.669 102.913 9.44414 102.913 5.85718Z" fill="#FEFEFE"/>
<path d="M118.319 11.4876V6.99256L114.093 0.181885H117.956L120.046 3.99586L122.091 0.181885H125.954L121.773 6.99256V11.4876H118.319Z" fill="#FEFEFE"/>
<path d="M47.2847 14.1663H59.8282V18.5251H52.2839V20.1597H59.6465V24.5185H52.2839V26.3347H59.8282V30.6935H47.2847V14.1663Z" fill="#FEFEFE"/>
<path d="M66.3727 30.6481L60.2827 14.1209H65.9637L69.554 25.245L73.1444 14.1209H78.8253L72.7354 30.6481H66.3727Z" fill="#FEFEFE"/>
<path d="M79.6434 14.1663H92.187V18.5251H84.6426V20.1597H92.0052V24.5185H84.6426V26.3347H92.187V30.6935H79.6434V14.1663Z" fill="#FEFEFE"/>
<path d="M105.503 30.6481L99.4131 22.2937V30.6481H94.4138V14.1663H99.5494L105.321 21.9758V14.1663H110.321V30.6935H105.503V30.6481Z" fill="#FEFEFE"/>
<path d="M116.547 18.5251H112.093V14.1663H125.955V18.5251H121.546V30.6935H116.547V18.5251Z" fill="#FEFEFE"/>
<path d="M53.7837 40.7281V36.3239L52.1476 40.7281H51.1478L49.5116 36.3239V40.7281H47.2847V33.3726H50.3751L51.6477 36.9141L52.9202 33.3726H56.0107V40.7281H53.7837Z" fill="#FEFEFE"/>
<path d="M62.1007 40.7281L61.828 39.8654H59.192L58.9193 40.7281H56.3742L59.1011 33.3726H61.9189L64.6457 40.7281H62.1007ZM60.5554 35.552L59.8283 37.913H61.2826L60.5554 35.552Z" fill="#FEFEFE"/>
<path d="M70.0085 40.7281L67.2816 37.0049V40.7281H65.0547V33.3726H67.3271L69.8722 36.8687V33.3726H72.0991V40.7281H70.0085Z" fill="#FEFEFE"/>
<path d="M78.2345 40.7281L77.9618 39.8654H75.3258L75.0532 40.7281H72.5081L75.2349 33.3726H78.0527L80.7796 40.7281H78.2345ZM76.6438 35.552L75.9167 37.913H77.371L76.6438 35.552Z" fill="#FEFEFE"/>
<path d="M80.416 37.0502C80.416 34.6891 82.2339 33.2362 84.4608 33.2362C86.2333 33.2362 87.2331 34.1897 87.6876 35.1432L85.8243 36.0967C85.597 35.6426 85.1426 35.1886 84.4608 35.1886C83.3701 35.1886 82.6884 36.0058 82.6884 37.0502C82.6884 38.0945 83.4155 38.9117 84.4608 38.9117C84.8699 38.9117 85.3698 38.7755 85.597 38.5939V38.3215H84.2336V36.3691H87.824V39.3658C87.0059 40.2739 85.9152 40.8641 84.4608 40.8641C82.2339 40.8641 80.416 39.4112 80.416 37.0502Z" fill="#FEFEFE"/>
<path d="M88.8238 33.3726H94.4139V35.325H91.0508V36.0514H94.323V38.0038H91.0508V38.8211H94.4139V40.7735H88.8238V33.3726Z" fill="#FEFEFE"/>
<path d="M101.913 40.7281V36.3239L100.277 40.7281H99.2768L97.6407 36.3239V40.7281H95.4137V33.3726H98.5042L99.7767 36.9141L101.049 33.3726H104.14V40.7281H101.913Z" fill="#FEFEFE"/>
<path d="M105.321 33.3726H110.911V35.325H107.548V36.0514H110.82V38.0038H107.548V38.8211H110.911V40.7735H105.321V33.3726Z" fill="#FEFEFE"/>
<path d="M116.865 40.7281L114.138 37.0049V40.7281H111.911V33.3726H114.184L116.729 36.8687V33.3726H118.956V40.7281H116.865Z" fill="#FEFEFE"/>
<path d="M121.773 40.7281V35.325H119.819V33.3726H126V35.325H124.046V40.7281H121.773Z" fill="#FEFEFE"/>
<path d="M19.9061 19.7054L17.4064 14.7563C17.361 14.7109 17.3156 14.6655 17.2701 14.7109L15.4522 16.4816C15.3613 16.5725 15.4068 16.6633 15.4522 16.7087L19.7243 19.7962C19.8606 19.887 19.9515 19.7962 19.9061 19.7054Z" fill="#FEFEFE"/>
<path d="M19.3152 20.8859L13.8161 22.6117C13.7706 22.6117 13.7706 22.7025 13.7706 22.7025L14.6341 23.5654C14.725 23.6562 14.8159 23.6562 14.9523 23.6108L19.3607 20.9313C19.4061 20.8859 19.3607 20.8405 19.3152 20.8859Z" fill="#FEFEFE"/>
<path d="M20.3151 19.206L20.6332 11.4418C20.6332 11.3964 20.5423 11.351 20.5423 11.3964L18.4972 13.485C18.4063 13.5758 18.4063 13.6666 18.4063 13.8029L20.1788 19.2514C20.2242 19.2968 20.3151 19.2968 20.3151 19.206Z" fill="#FEFEFE"/>
<path d="M12.4072 19.5693L11.5437 20.4321L12.7253 21.6129C12.7708 21.6583 12.8617 21.7037 12.9526 21.7037L19.5425 20.4776C19.5425 20.4321 19.5425 20.4776 19.5425 20.4321L12.4981 19.5238C12.4981 19.5238 12.4072 19.5238 12.4072 19.5693Z" fill="#FEFEFE"/>
<path d="M19.1789 19.933L14.4523 17.6623C14.4069 17.6169 14.316 17.6623 14.2706 17.7077L13.3616 18.616C13.3162 18.6614 13.3616 18.7068 13.407 18.7522L19.1789 20.0693C19.2243 20.0238 19.2243 19.9784 19.1789 19.933Z" fill="#FEFEFE"/>
<path d="M24.5417 7.4008L22.1784 9.76184C22.133 9.80724 22.0875 9.89805 22.0875 9.94346L20.7695 19.6146C20.7695 19.7508 20.9513 19.8416 21.0422 19.7508L24.4508 16.3455C24.4962 16.3001 24.5417 16.2093 24.5417 16.1639V7.4008Z" fill="#FEFEFE"/>
<path d="M21.1332 21.2946L24.4054 27.1518C24.4509 27.1972 24.4963 27.1972 24.4963 27.1064V24.6091C24.4963 24.5637 24.4963 24.5183 24.4509 24.4729L21.1786 21.2492C21.1786 21.2492 21.1332 21.2492 21.1332 21.2946Z" fill="#FEFEFE"/>
<path d="M19.9061 20.9313L15.634 24.2912C15.5886 24.3366 15.5431 24.4274 15.634 24.5182L18.2245 27.1517C18.27 27.1971 18.3609 27.1971 18.4063 27.1063L20.1333 21.0675C20.1333 20.9313 19.997 20.8859 19.9061 20.9313Z" fill="#FEFEFE"/>
<path d="M24.4962 29.9669L20.6332 21.2038C20.5877 21.113 20.4514 21.113 20.4514 21.2492L19.7242 28.514C19.7242 28.5594 19.7242 28.6048 19.7697 28.6502L24.5417 33.4176V30.0577C24.5417 30.0123 24.4962 30.0123 24.4962 29.9669Z" fill="#FEFEFE"/>
<path d="M16.8156 6.44663H21.0877C21.1786 6.44663 21.2695 6.35582 21.2695 6.26501L21.2241 0.725658C21.2241 0.453231 20.9514 0.226209 20.6787 0.226209H14.9977C14.7705 0.226209 14.6342 0.453231 14.6796 0.634849L16.543 6.31041C16.5884 6.40122 16.6793 6.44663 16.8156 6.44663Z" fill="#FEFEFE"/>
<path d="M23.042 6.44663H33.8585C34.1312 6.44663 34.3584 6.35582 34.5402 6.1742L39.5395 1.1797C39.903 0.816467 39.6303 0.226209 39.1304 0.226209H24.0873C23.6782 0.226209 23.3601 0.498636 23.3146 0.907276L22.542 5.90177C22.4966 6.1742 22.7238 6.44663 23.042 6.44663Z" fill="#FEFEFE"/>
<path d="M34.2675 9.53472V14.0298C34.2675 14.1206 34.3584 14.2114 34.4493 14.166L40.2666 11.5779C40.4484 11.4871 40.5393 11.3509 40.5393 11.1239V4.85806C40.5393 4.76725 40.4484 4.72184 40.3575 4.76725L34.4493 9.08068C34.3584 9.21689 34.2675 9.35311 34.2675 9.53472Z" fill="#FEFEFE"/>
<path d="M34.2675 25.9258V28.9225C34.2675 29.1495 34.3584 29.3311 34.5402 29.4219L40.2666 33.0543C40.4029 33.1451 40.5393 33.0543 40.5393 32.9181V28.196C40.5393 27.969 40.4029 27.7874 40.2212 27.742L34.6311 25.6987C34.4948 25.6079 34.2675 25.7442 34.2675 25.9258Z" fill="#FEFEFE"/>
<path d="M34.2675 32.2824V34.4164H29.7228C29.6319 34.4164 29.541 34.5526 29.5864 34.6434L33.3131 40.3644C33.4495 40.5914 33.6767 40.6822 33.9494 40.6822H40.5848V37.4585C40.5848 37.2315 40.4939 37.0499 40.3121 36.9137L34.5857 32.1916C34.4493 32.0554 34.2675 32.1462 34.2675 32.2824Z" fill="#FEFEFE"/>
<path d="M16.043 34.4619H6.27177V31.9193C6.27177 31.7831 6.08998 31.6922 5.99909 31.7831L0.318133 36.2327C0.0908953 36.3689 0 36.5959 0 36.823V40.6823H13.6343C14.0433 40.6823 14.4069 40.4099 14.4978 40.0467L16.1794 34.6435C16.2248 34.5527 16.1794 34.4619 16.043 34.4619Z" fill="#FEFEFE"/>
<path d="M34.7674 23.5649L40.3575 24.7908C40.4484 24.7908 40.5393 24.7454 40.5393 24.6092V15.3921C40.5393 15.2105 40.4029 15.1197 40.2212 15.1651L34.722 16.618C34.4493 16.7088 34.2675 16.9358 34.2675 17.2083V22.9746C34.2675 23.2471 34.4948 23.4741 34.7674 23.5649Z" fill="#FEFEFE"/>
<path d="M26.1324 34.4618H19.497C19.1789 34.4618 18.9517 34.6889 18.9062 35.0067L18.3608 40.4098C18.3608 40.5915 18.4972 40.7731 18.679 40.7731H28.9047C29.0865 40.7731 29.2228 40.5915 29.1319 40.4098L26.6778 34.9159C26.6323 34.5981 26.4051 34.4618 26.1324 34.4618Z" fill="#FEFEFE"/>
<path d="M0.227238 5.81157L5.86274 9.89798C6.04454 10.0342 6.27177 9.89798 6.27177 9.71636V6.44724H12.998C13.1344 6.44724 13.1798 6.31102 13.1344 6.22021L10.2257 0.499243C10.1348 0.317625 9.95303 0.226816 9.72579 0.226816H0V5.40293C0 5.53914 0.0908953 5.72076 0.227238 5.81157Z" fill="#FEFEFE"/>
<path d="M6.27177 28.6955V25.0631C6.27177 24.9723 6.18088 24.9269 6.08998 24.9269L0.409029 26.7431C0.181791 26.8339 0 27.0609 0 27.3334V32.6457C0 32.7819 0.136343 32.8273 0.227238 32.7819L5.99909 29.2858C6.18088 29.1041 6.27177 28.9225 6.27177 28.6955Z" fill="#FEFEFE"/>
<path d="M6.27177 17.0267V13.9846C6.27177 13.7575 6.13543 13.5305 5.90819 13.4397L0.181791 10.67C0.0908953 10.6246 0 10.67 0 10.8062V15.4375C0 15.7099 0.181791 15.9369 0.409029 15.9824L6.08998 17.2537C6.18088 17.2083 6.27177 17.1629 6.27177 17.0267Z" fill="#FEFEFE"/>
<path d="M6.27177 22.702V19.0242C6.27177 18.7972 6.08998 18.6156 5.86274 18.5701L0.181791 17.8437C0.0908953 17.8437 0 17.9345 0 18.0253V23.9733C0 24.1095 0.136343 24.2457 0.272686 24.2003L5.90819 23.156C6.13543 23.1106 6.27177 22.929 6.27177 22.702Z" fill="#FEFEFE"/>
</svg>
